<svg width="48" height="50" viewBox="0 0 48 50" fill="none" xmlns="http://www.w3.org/2000/svg">
    <g filter="url(#filter0_i_727_3053)">
        <circle cx="24" cy="25.5" r="24" fill="#4361EE"/>
    </g>
    <path d="M18.0059 34.0586C17.2441 34.0586 16.5762 34.0176 16.002 33.9355C15.4277 33.8652 14.9414 33.7773 14.543 33.6719V29.1367C14.9766 29.2305 15.4336 29.3125 15.9141 29.3828C16.3828 29.4531 16.8984 29.4883 17.4609 29.4883C18 29.4883 18.498 29.4297 18.9551 29.3125C19.4238 29.1953 19.8281 28.9902 20.168 28.6973C20.5195 28.416 20.7891 28.0352 20.9766 27.5547C21.1758 27.0742 21.2754 26.4707 21.2754 25.7441V0.800781H26.7246V25.5684C26.7246 27.0449 26.5078 28.3164 26.0742 29.3828C25.6523 30.4492 25.0547 31.3281 24.2812 32.0195C23.5195 32.7227 22.6055 33.2383 21.5391 33.5664C20.4727 33.8945 19.2949 34.0586 18.0059 34.0586Z" fill="white"/>
    <defs>
        <filter id="filter0_i_727_3053" x="0" y="1.5" width="48" height="52" filterUnits="userSpaceOnUse" color-interpolation-filters="sRGB">
            <feFlood flood-opacity="0" result="BackgroundImageFix"/>
            <feBlend mode="normal" in="SourceGraphic" in2="BackgroundImageFix" result="shape"/>
            <feColorMatrix in="SourceAlpha" type="matrix" values="0 0 0 0 0 0 0 0 0 0 0 0 0 0 0 0 0 0 127 0" result="hardAlpha"/>
            <feOffset dy="4"/>
            <feGaussianBlur stdDeviation="6"/>
            <feComposite in2="hardAlpha" operator="arithmetic" k2="-1" k3="1"/>
            <feColorMatrix type="matrix" values="0 0 0 0 0 0 0 0 0 0 0 0 0 0 0 0 0 0 0.12 0"/>
            <feBlend mode="normal" in2="shape" result="effect1_innerShadow_727_3053"/>
        </filter>
    </defs>
</svg>
