<svg width="278" height="249" viewBox="0 0 278 249" fill="none" xmlns="http://www.w3.org/2000/svg">
    <path d="M269.587 249H0.219146C0.190367 249 0.16187 248.994 0.135282 248.983C0.108694 248.971 0.0845358 248.955 0.0641863 248.934C0.0438367 248.913 0.0276946 248.888 0.0166815 248.861C0.00566837 248.833 0 248.804 0 248.774C0 248.745 0.00566837 248.715 0.0166815 248.688C0.0276946 248.66 0.0438367 248.636 0.0641863 248.615C0.0845358 248.594 0.108694 248.577 0.135282 248.566C0.16187 248.554 0.190367 248.548 0.219146 248.548H269.587C269.645 248.548 269.7 248.572 269.742 248.615C269.783 248.657 269.806 248.714 269.806 248.774C269.806 248.834 269.783 248.892 269.742 248.934C269.7 248.976 269.645 249 269.587 249H269.587Z" fill="#292A2E"/>
    <g opacity="0.65">
        <path d="M269.587 249H0.219146C0.190367 249 0.16187 248.994 0.135282 248.983C0.108694 248.971 0.0845358 248.955 0.0641863 248.934C0.0438367 248.913 0.0276946 248.888 0.0166815 248.861C0.00566837 248.833 0 248.804 0 248.774C0 248.745 0.00566837 248.715 0.0166815 248.688C0.0276946 248.66 0.0438367 248.636 0.0641863 248.615C0.0845358 248.594 0.108694 248.577 0.135282 248.566C0.16187 248.554 0.190367 248.548 0.219146 248.548H269.587C269.645 248.548 269.7 248.572 269.742 248.615C269.783 248.657 269.806 248.714 269.806 248.774C269.806 248.834 269.783 248.892 269.742 248.934C269.7 248.976 269.645 249 269.587 249H269.587Z" fill="#292A2E"/>
    </g>
    <path d="M18.9727 248.603L18.3578 248.481L27.9677 150.089L28.5825 150.211L18.9727 248.603Z" fill="#494949"/>
    <path d="M54.7554 248.603L54.1405 248.481L63.7504 150.089L64.3649 150.211L54.7554 248.603Z" fill="#494949"/>
    <path d="M133.851 248.603L134.466 248.481L124.856 150.089L124.241 150.211L133.851 248.603Z" fill="#494949"/>
    <path d="M98.0683 248.603L98.6828 248.481L89.0733 150.089L88.4584 150.211L98.0683 248.603Z" fill="#494949"/>
    <path d="M85.3238 106.786L84.7032 106.872L90.317 150.193L90.9377 150.108L85.3238 106.786Z" fill="#494949"/>
    <path d="M20.8873 106.786L20.2667 106.871L25.8806 150.193L26.5012 150.107L20.8873 106.786Z" fill="#494949"/>
    <path d="M90.884 146.977H27.8578C26.1573 146.977 24.7788 148.397 24.7788 150.15V150.15C24.7788 151.902 26.1573 153.322 27.8578 153.322H90.884C92.5845 153.322 93.963 151.902 93.963 150.15V150.15C93.963 148.397 92.5845 146.977 90.884 146.977Z" fill="#292A2E"/>
    <path opacity="0.8" d="M90.884 146.977H27.8578C26.1573 146.977 24.7788 148.397 24.7788 150.15V150.15C24.7788 151.902 26.1573 153.322 27.8578 153.322H90.884C92.5845 153.322 93.963 151.902 93.963 150.15V150.15C93.963 148.397 92.5845 146.977 90.884 146.977Z" fill="white"/>
    <path d="M90.8828 153.645H27.8578C26.9638 153.636 26.1093 153.264 25.4801 152.609C24.851 151.955 24.498 151.071 24.498 150.15C24.498 149.229 24.851 148.345 25.4801 147.69C26.1093 147.036 26.9638 146.663 27.8578 146.655H90.8828C91.7768 146.663 92.6313 147.036 93.2605 147.69C93.8896 148.345 94.2426 149.229 94.2426 150.15C94.2426 151.071 93.8896 151.955 93.2605 152.609C92.6313 153.264 91.7768 153.636 90.8828 153.645ZM27.8578 147.3C27.1293 147.308 26.4332 147.611 25.9208 148.145C25.4084 148.679 25.121 149.399 25.121 150.15C25.121 150.9 25.4084 151.621 25.9208 152.154C26.4332 152.688 27.1293 152.992 27.8578 153H90.8828C91.6113 152.992 92.3074 152.688 92.8198 152.154C93.3322 151.621 93.6196 150.9 93.6196 150.15C93.6196 149.399 93.3322 148.679 92.8198 148.145C92.3074 147.611 91.6113 147.308 90.8828 147.3H27.8578Z" fill="#292A2E"/>
    <path d="M125.476 146.977H62.4499C60.7494 146.977 59.3709 148.397 59.3709 150.15V150.15C59.3709 151.902 60.7494 153.322 62.4499 153.322H125.476C127.177 153.322 128.555 151.902 128.555 150.15V150.15C128.555 148.397 127.177 146.977 125.476 146.977Z" fill="white"/>
    <path d="M125.476 153.645H62.4502C62.002 153.649 61.5574 153.562 61.142 153.389C60.7267 153.215 60.3489 152.958 60.0304 152.633C59.7119 152.308 59.4591 151.921 59.2866 151.495C59.1141 151.069 59.0253 150.612 59.0253 150.15C59.0253 149.688 59.1141 149.231 59.2866 148.804C59.4591 148.378 59.7119 147.991 60.0304 147.666C60.3489 147.341 60.7267 147.085 61.142 146.911C61.5574 146.737 62.002 146.65 62.4502 146.655H125.476C125.925 146.65 126.369 146.737 126.785 146.911C127.2 147.085 127.578 147.341 127.896 147.666C128.215 147.991 128.468 148.378 128.64 148.804C128.813 149.231 128.901 149.688 128.901 150.15C128.901 150.612 128.813 151.069 128.64 151.495C128.468 151.921 128.215 152.308 127.896 152.633C127.578 152.958 127.2 153.215 126.785 153.389C126.369 153.562 125.925 153.649 125.476 153.645ZM62.4502 147.3C62.0845 147.296 61.7216 147.366 61.3826 147.508C61.0436 147.649 60.7352 147.859 60.4752 148.124C60.2152 148.389 60.0088 148.704 59.8679 149.052C59.7271 149.4 59.6545 149.773 59.6545 150.15C59.6545 150.527 59.7271 150.9 59.8679 151.247C60.0088 151.595 60.2152 151.911 60.4752 152.176C60.7352 152.441 61.0436 152.65 61.3826 152.792C61.7216 152.933 62.0845 153.004 62.4502 153H125.476C125.842 153.004 126.205 152.933 126.544 152.792C126.883 152.65 127.191 152.441 127.451 152.176C127.711 151.911 127.918 151.595 128.059 151.247C128.2 150.9 128.272 150.527 128.272 150.15C128.272 149.773 128.2 149.4 128.059 149.052C127.918 148.704 127.711 148.389 127.451 148.124C127.191 147.859 126.883 147.649 126.544 147.508C126.205 147.366 125.842 147.296 125.476 147.3H62.4502Z" fill="#292A2E"/>
    <path d="M81.8712 106.828H20.7462C19.7469 106.828 18.7817 106.453 18.0308 105.774C17.28 105.094 16.7947 104.157 16.6657 103.136L12.6225 71.1436C12.5469 70.5456 12.5959 69.9378 12.7664 69.3609C12.9369 68.784 13.2249 68.2512 13.6111 67.7981C13.9973 67.345 14.4729 66.982 15.0062 66.7333C15.5394 66.4846 16.118 66.356 16.7033 66.3561H77.828C78.8273 66.3561 79.7925 66.7308 80.5433 67.4102C81.2942 68.0897 81.7794 69.0275 81.9085 70.0485L85.9517 102.04C86.0273 102.638 85.9781 103.246 85.8077 103.823C85.6372 104.4 85.3492 104.933 84.963 105.386C84.5769 105.839 84.1013 106.202 83.5681 106.45C83.035 106.699 82.4565 106.828 81.8712 106.828Z" fill="#292A2E"/>
    <path opacity="0.8" d="M81.8712 106.828H20.7462C19.7469 106.828 18.7817 106.453 18.0308 105.774C17.28 105.094 16.7947 104.157 16.6657 103.136L12.6225 71.1436C12.5469 70.5456 12.5959 69.9378 12.7664 69.3609C12.9369 68.784 13.2249 68.2512 13.6111 67.7981C13.9973 67.345 14.4729 66.982 15.0062 66.7333C15.5394 66.4846 16.118 66.356 16.7033 66.3561H77.828C78.8273 66.3561 79.7925 66.7308 80.5433 67.4102C81.2942 68.0897 81.7794 69.0275 81.9085 70.0485L85.9517 102.04C86.0273 102.638 85.9781 103.246 85.8077 103.823C85.6372 104.4 85.3492 104.933 84.963 105.386C84.5769 105.839 84.1013 106.202 83.5681 106.45C83.035 106.699 82.4565 106.828 81.8712 106.828Z" fill="white"/>
    <path d="M81.8712 107.15H20.7462C19.6716 107.148 18.6343 106.744 17.8269 106.013C17.0194 105.283 16.4965 104.275 16.3551 103.178L12.3119 71.1858C12.2306 70.5424 12.2834 69.8884 12.4668 69.2676C12.6503 68.6469 12.9601 68.0735 13.3757 67.586C13.7913 67.0984 14.3031 66.7077 14.8768 66.4402C15.4506 66.1726 16.0732 66.0342 16.703 66.0342H77.828C78.9028 66.0367 79.9402 66.4408 80.7477 67.1715C81.5553 67.9023 82.0782 68.9101 82.2193 70.0078L86.2626 101.999C86.3438 102.643 86.2909 103.297 86.1074 103.918C85.9239 104.538 85.614 105.112 85.1984 105.599C84.7828 106.087 84.2711 106.477 83.6973 106.745C83.1236 107.013 82.501 107.151 81.8712 107.151V107.15ZM16.703 66.6787C16.1622 66.6787 15.6277 66.7975 15.1351 67.0273C14.6425 67.2571 14.2031 67.5925 13.8463 68.0111C13.4895 68.4298 13.2235 68.922 13.066 69.455C12.9085 69.988 12.8632 70.5495 12.933 71.102L16.976 103.094C17.0973 104.036 17.5462 104.902 18.2395 105.529C18.9329 106.156 19.8235 106.503 20.7462 106.505H81.8712C82.4121 106.505 82.9467 106.386 83.4394 106.157C83.9321 105.927 84.3715 105.591 84.7284 105.173C85.0852 104.754 85.3512 104.261 85.5087 103.728C85.6662 103.195 85.7114 102.634 85.6415 102.081L81.5982 70.0895C81.4769 69.1471 81.0279 68.282 80.3346 67.6548C79.6413 67.0275 78.7506 66.6807 77.828 66.6787H16.703Z" fill="#292A2E"/>
    <path d="M85.3277 106.828H24.2027C23.2034 106.828 22.2381 106.453 21.4872 105.774C20.7363 105.094 20.251 104.157 20.1219 103.136L16.0787 71.1436C16.0032 70.5456 16.0523 69.9379 16.2229 69.361C16.3934 68.7842 16.6814 68.2514 17.0676 67.7983C17.4538 67.3452 17.9293 66.9822 18.4625 66.7335C18.9957 66.4848 19.5742 66.3561 20.1595 66.3561H81.2845C82.2839 66.3561 83.2491 66.7308 84 67.4102C84.7509 68.0897 85.2362 69.0274 85.3653 70.0485L89.4085 102.04C89.484 102.638 89.4349 103.246 89.2644 103.823C89.0938 104.4 88.8059 104.933 88.4197 105.386C88.0334 105.839 87.5579 106.202 87.0247 106.45C86.4915 106.699 85.913 106.828 85.3277 106.828Z" fill="white"/>
    <path d="M85.3278 107.15H24.2027C23.1281 107.148 22.0908 106.744 21.2833 106.014C20.4758 105.283 19.9529 104.275 19.8117 103.178L15.7685 71.1858C15.6871 70.5424 15.7399 69.8884 15.9234 69.2676C16.1068 68.6469 16.4167 68.0735 16.8323 67.586C17.2478 67.0984 17.7596 66.7077 18.3334 66.4402C18.9071 66.1726 19.5297 66.0342 20.1595 66.0342H81.2845C82.3593 66.0366 83.3967 66.4407 84.2042 67.1715C85.0117 67.9023 85.5345 68.9101 85.6756 70.0078L89.7188 101.999C89.8002 102.643 89.7474 103.297 89.5639 103.918C89.3805 104.538 89.0706 105.112 88.655 105.599C88.2394 106.087 87.7276 106.478 87.1539 106.745C86.5801 107.013 85.9576 107.151 85.3278 107.151V107.15ZM20.1595 66.6787C19.6187 66.6787 19.0842 66.7975 18.5916 67.0273C18.099 67.2571 17.6596 67.5925 17.3027 68.0111C16.9459 68.4298 16.6799 68.922 16.5223 69.455C16.3648 69.988 16.3194 70.5495 16.3893 71.102L20.4325 103.094C20.5537 104.036 21.0026 104.902 21.6959 105.529C22.3893 106.156 23.28 106.503 24.2027 106.505H85.3278C85.8686 106.505 86.4033 106.387 86.896 106.157C87.3888 105.927 87.8282 105.591 88.1851 105.173C88.542 104.754 88.8081 104.262 88.9655 103.728C89.123 103.195 89.1683 102.634 89.0983 102.081L85.0551 70.0895C84.9339 69.1469 84.485 68.2817 83.7916 67.6542C83.0983 67.0268 82.2076 66.6798 81.2848 66.6777L20.1595 66.6787Z" fill="#292A2E"/>
    <path d="M171.535 232.147C171.535 232.147 173.214 241.112 181.36 241.612C189.507 242.111 187.74 248.798 187.74 248.798H156.608V232.772L171.535 232.147Z" fill="black"/>
    <path d="M112.307 226.487C112.307 226.487 109.972 235.295 117.068 239.448C124.165 243.602 119.715 248.798 119.715 248.798L91.7791 234.638L98.6449 220.257L112.307 226.487Z" fill="black"/>
    <path d="M87.2384 17.5854C87.2384 17.5854 91.3001 14.4265 92.3066 7.15524C93.0858 1.5252 88.0455 5.17244 88.0455 5.17244C88.0455 5.17244 88.5683 1.11329 85.6975 1.51585C82.8267 1.91841 81.2207 6.18335 81.2207 6.18335" fill="#0C0C0C"/>
    <path d="M70.8616 1.99098C70.8616 1.99098 56.6187 3.56445 61.7674 23.4499L63.0278 23.5367L65.5862 23.7134" fill="#0C0C0C"/>
    <path d="M84.8528 44.2172C84.7902 44.2088 84.0952 56.0876 70.7004 55.0528C61.4274 54.3374 58.1212 44.2004 57.9086 44.2004C58.9085 43.9814 60.1439 43.6492 60.6351 43.535C61.7052 43.279 62.6743 42.6934 63.4135 41.8561C64.1527 41.0187 64.627 39.9693 64.7732 38.8475C65.0446 37.1637 64.5853 28.5487 64.7259 26.8449L78.96 30.1186C78.7612 33.7168 77.369 42.0586 82.2472 43.535C83.0602 43.7792 83.9346 44.0037 84.8528 44.2172Z" fill="#E98862"/>
    <path opacity="0.52" d="M79.1601 40.1258C78.9371 39.3855 78.7935 38.6223 78.7318 37.8498C78.5756 36.0868 78.6071 34.3115 78.8257 32.5555C75.9326 32.1532 73.207 30.9228 70.9587 29.0041C70.6945 30.0099 69.2409 34.4045 69.6438 35.3606C70.403 37.1672 73.9773 40.1258 79.1601 40.1258Z" fill="#0C0C0C"/>
    <path d="M76.2222 37.7746C70.6065 37.2556 63.8853 33.6 63.7886 25.7459L63.7009 18.6595C63.6042 10.8054 67.5291 4.38602 74.7064 4.29215C81.8834 4.19796 87.3267 10.4947 87.4234 18.3485L87.4622 21.4858C87.4572 22.5633 87.381 23.6392 87.234 24.7059C86.8658 27.5284 86.2948 31.8195 84.4361 34.7225C82.6805 37.4627 79.8097 38.1062 76.2222 37.7746Z" fill="#E98862"/>
    <path d="M78.8276 30.5957C79.9864 30.6498 81.1414 30.4225 82.1993 29.9321C82.2212 29.9225 82.241 29.9086 82.2576 29.8911C82.2743 29.8735 82.2874 29.8528 82.2963 29.8301C82.3051 29.8074 82.3096 29.7831 82.3093 29.7586C82.3091 29.7341 82.3041 29.7098 82.2948 29.6873C82.2855 29.6648 82.2719 29.6444 82.2549 29.6272C82.2379 29.6101 82.2178 29.5966 82.1958 29.5874C82.1737 29.5783 82.1501 29.5737 82.1263 29.574C82.1025 29.5742 82.0791 29.5793 82.0572 29.5889C79.7781 30.5905 77.7084 30.4437 76.0723 29.1648C76.0393 29.1379 76.0049 29.1128 75.9693 29.0896C75.9282 29.07 75.8814 29.0669 75.8382 29.0811C75.795 29.0952 75.7586 29.1255 75.736 29.166C75.7134 29.2064 75.7063 29.2542 75.7162 29.2997C75.7261 29.3453 75.7521 29.3854 75.7893 29.4122C75.8024 29.4206 75.8234 29.4377 75.8519 29.4612C76.7121 30.1362 77.7482 30.5312 78.8276 30.5957Z" fill="#0C0C0C"/>
    <path d="M78.7734 32.3649C78.9828 32.3784 79.1929 32.3732 79.4014 32.3494C79.4492 32.3442 79.493 32.3197 79.5231 32.2812C79.5533 32.2427 79.5674 32.1935 79.5624 32.1443C79.5573 32.0951 79.5335 32.05 79.4961 32.0189C79.4588 31.9878 79.411 31.9732 79.3633 31.9785C78.1088 32.1159 77.5102 31.5237 77.4849 31.4982C77.4506 31.4648 77.405 31.4464 77.3578 31.4471C77.3107 31.4478 77.2656 31.4673 77.2322 31.5017C77.1988 31.5361 77.1797 31.5825 77.1791 31.6311C77.1784 31.6797 77.1961 31.7267 77.2285 31.762C77.6605 32.1407 78.2064 32.3537 78.7734 32.3649Z" fill="#0C0C0C"/>
    <path d="M85.0532 22.996C85.5415 22.996 85.9373 22.5882 85.9373 22.0851C85.9373 21.582 85.5415 21.1742 85.0532 21.1742C84.5649 21.1742 84.1691 21.582 84.1691 22.0851C84.1691 22.5882 84.5649 22.996 85.0532 22.996Z" fill="#0C0C0C"/>
    <path d="M76.4164 22.4377C76.9046 22.4377 77.3005 22.0298 77.3005 21.5268C77.3005 21.0237 76.9046 20.6158 76.4164 20.6158C75.9281 20.6158 75.5323 21.0237 75.5323 21.5268C75.5323 22.0298 75.9281 22.4377 76.4164 22.4377Z" fill="#0C0C0C"/>
    <path d="M64.2638 28.1329C62.0827 28.1616 60.2851 25.7804 60.2566 23.5331C60.2281 21.2858 61.9816 20.0236 64.1627 19.9949L65.3051 21.4858L66.1384 28.1084L64.2638 28.1329Z" fill="#E98862"/>
    <path d="M66.4324 24.5218C66.4324 24.5218 67.169 13.4085 70.4396 12.7224C72.6179 12.2653 77.9003 15.4487 82.7929 14.4871C84.9336 14.0678 86.9657 14.6126 87.1723 15.6542C87.254 16.0667 88.5877 10.1383 85.2357 5.64047C82.5668 2.06001 73.8329 1.04716 69.8595 2.22129C58.8575 5.47338 63.7125 20.4842 63.7125 20.4842L64.2031 24.3153L66.4324 24.5218Z" fill="#0C0C0C"/>
    <path d="M80.1447 27.9729C80.1493 27.9732 80.1541 27.9732 80.1587 27.9729C80.8616 27.9655 82.0396 27.8726 82.0349 27.3307C82.0302 26.8816 80.7905 22.0487 80.6487 21.499C80.6331 21.4562 80.6025 21.4209 80.563 21.3999C80.5235 21.379 80.4779 21.3739 80.435 21.3857C80.3921 21.3975 80.3549 21.4252 80.3308 21.4637C80.3066 21.5021 80.2972 21.5484 80.3043 21.5935C80.855 23.7341 81.6752 27.0294 81.6787 27.3352C81.6107 27.4642 80.8847 27.5968 80.1569 27.6045C80.111 27.6055 80.0672 27.6247 80.0346 27.658C80.002 27.6913 79.9831 27.7362 79.9817 27.7835C79.9803 27.8308 79.9966 27.8768 80.0273 27.912C80.0579 27.9473 80.1005 27.9691 80.1462 27.9729H80.1447Z" fill="#0C0C0C"/>
    <path d="M82.544 17.146C83.2827 16.9365 84.0625 16.9365 84.8012 17.146C85.1641 17.2465 85.5102 17.4026 85.828 17.6092C86.1422 17.8114 86.4303 18.0538 86.6855 18.3305C86.7344 18.3793 86.7628 18.4459 86.7647 18.516C86.7665 18.5862 86.7416 18.6542 86.6953 18.7057C86.649 18.7571 86.585 18.7879 86.517 18.7913C86.449 18.7947 86.3824 18.7706 86.3315 18.724L86.3155 18.7098C86.0791 18.4844 85.8161 18.2906 85.5328 18.1327C85.2549 17.9758 84.9554 17.8633 84.6447 17.7989C84.033 17.6664 83.3983 17.7029 82.8048 17.9047L82.7797 17.9137C82.6818 17.9494 82.5741 17.9435 82.4804 17.8974C82.3867 17.8513 82.3145 17.7687 82.2799 17.6678C82.2453 17.5669 82.251 17.4559 82.2958 17.3593C82.3405 17.2628 82.4207 17.1885 82.5186 17.1528L82.544 17.146Z" fill="#0C0C0C"/>
    <path d="M77.3133 17.6031C76.7513 17.3217 76.127 17.1982 75.5038 17.2454C75.1875 17.2666 74.8761 17.337 74.5802 17.4544C74.2795 17.5721 73.9943 17.7281 73.7312 17.9189L73.7143 17.9305C73.6578 17.9678 73.5896 17.9812 73.5237 17.968C73.4579 17.9548 73.3995 17.916 73.3608 17.8596C73.322 17.8032 73.3058 17.7336 73.3156 17.6652C73.3253 17.5968 73.3603 17.535 73.4131 17.4924C73.702 17.2533 74.0189 17.0526 74.3564 16.8951C74.6982 16.7342 75.0614 16.627 75.434 16.577C75.8071 16.523 76.1857 16.522 76.5591 16.5741C76.9424 16.6232 77.3169 16.7282 77.6714 16.886C77.7669 16.9288 77.842 17.0089 77.8802 17.1087C77.9183 17.2085 77.9165 17.3199 77.8749 17.4183C77.8334 17.5166 77.7557 17.594 77.6588 17.6333C77.5619 17.6726 77.4539 17.6707 77.3584 17.6279C77.3512 17.6247 77.3437 17.6212 77.3368 17.6173L77.3133 17.6031Z" fill="#0C0C0C"/>
    <path d="M81.4929 9.49544C83.1074 9.1479 84.0137 6.88141 83.5172 4.43308C83.0207 1.98476 81.3095 0.281739 79.6951 0.629278C78.0806 0.976817 77.1743 3.24331 77.6708 5.69163C78.1672 8.13996 79.8785 9.84298 81.4929 9.49544Z" fill="#0C0C0C"/>
    <path d="M95.0046 223.999L118.562 147.425H75.8604C67.2824 147.425 63.7065 139.93 63.7065 131.093C63.7065 122.255 72.1393 114.508 80.7166 114.508H138.349C143.58 114.508 149.447 117.804 152.318 122.311C155.189 126.817 154.413 133.799 152.333 138.746L114.608 233.15" fill="#262626"/>
    <path opacity="0.8" d="M95.0046 223.999L118.562 147.425H75.8604C67.2824 147.425 63.7065 139.93 63.7065 131.093C63.7065 122.255 72.1393 114.508 80.7166 114.508H138.349C143.58 114.508 149.447 117.804 152.318 122.311C155.189 126.817 154.413 133.799 152.333 138.746L114.608 233.15" fill="#0A0A0A"/>
    <path d="M154.818 240.473L115.427 147.425L63.7059 147.422C51.5869 146.443 46.0365 139.599 46.2131 130.764C46.3872 122.04 50.6743 113.423 59.1029 113.423H128.814C135.05 113.556 139.956 120.656 142.27 126.624L175.017 234.776" fill="#262626"/>
    <path d="M42.6855 113.53C42.6855 113.53 40.3885 128.964 44.0295 137.544C48.5749 148.257 65.6144 147.422 65.6144 147.422L64.6542 113.424L42.6855 113.53Z" fill="#262626"/>
    <path d="M143.752 113.227L107.217 105.426C105.695 105.101 104.277 104.386 103.094 103.346C101.911 102.307 101.002 100.977 100.45 99.4789L86.0804 60.4638C85.6428 59.2929 85.4341 58.0444 85.4662 56.7902C85.4983 55.5359 85.7706 54.3005 86.2675 53.155C86.7644 52.0095 87.476 50.9764 88.3615 50.1151C89.247 49.2538 90.289 48.5813 91.4275 48.1361C92.566 47.6909 93.7787 47.4819 94.9958 47.521C96.213 47.5601 97.4107 47.8467 98.52 48.3641C99.6294 48.8816 100.629 49.6198 101.46 50.5363C102.292 51.4528 102.94 52.5296 103.366 53.7048L115.936 87.8321L147.504 94.5717C147.504 94.5717 144.386 113.362 143.752 113.227Z" fill="#1F41BB"/>
    <path d="M101.496 70.373C101.074 75.4801 98.0833 107.342 97.6763 113.633H42.7096C42.3937 107.959 40.9755 83.1504 39.7781 72.0542C38.6347 61.4673 37.0322 56.6495 38.3489 53.3593C40.6712 47.5567 48.0633 44.9652 53.0692 44.2672C56.1257 43.8408 60.723 43.535 60.723 43.535C60.723 43.535 61.1125 51.6484 70.3943 52.1C83.0293 52.7129 82.1855 43.535 82.2481 43.535C84.295 43.535 95.437 45.0688 98.2229 46.9397C102.158 49.5824 103.321 53.1835 103.367 56.4924C103.42 60.3019 101.974 64.5794 101.496 70.373Z" fill="#1F41BB"/>
    <path d="M99.3355 96.4062H99.3224C99.3019 96.4044 99.2819 96.3985 99.2637 96.3888C99.2454 96.3791 99.2291 96.3658 99.2158 96.3496C99.2026 96.3334 99.1925 96.3147 99.1862 96.2945C99.18 96.2744 99.1776 96.2531 99.1793 96.232L100.606 78.5703C100.607 78.549 100.613 78.5282 100.622 78.5091C100.631 78.49 100.644 78.473 100.66 78.4592C100.676 78.4454 100.694 78.4351 100.714 78.4289C100.734 78.4226 100.754 78.4206 100.775 78.4229C100.796 78.4246 100.815 78.4305 100.834 78.4402C100.852 78.4499 100.868 78.4633 100.882 78.4794C100.895 78.4956 100.905 78.5143 100.911 78.5345C100.917 78.5547 100.92 78.576 100.918 78.5971L99.4911 96.2588C99.4878 96.2989 99.4699 96.3363 99.4412 96.3636C99.4124 96.3909 99.3747 96.4061 99.3355 96.4062Z" fill="#0C0C0C"/>
    <path d="M108.172 110.13L120.233 71.931C120.445 71.2597 120.858 70.6748 121.412 70.26C121.966 69.8452 122.634 69.6217 123.319 69.6217H172.455C172.967 69.6217 173.472 69.7466 173.929 69.9862C174.385 70.2258 174.78 70.5734 175.081 71.0004C175.382 71.4274 175.58 71.9218 175.66 72.443C175.74 72.9643 175.699 73.4977 175.541 73.9996L163.48 112.199C163.268 112.87 162.856 113.455 162.301 113.87C161.747 114.284 161.08 114.508 160.395 114.508H111.258C110.746 114.508 110.241 114.383 109.785 114.143C109.328 113.904 108.934 113.556 108.633 113.129C108.332 112.702 108.133 112.208 108.053 111.687C107.973 111.165 108.014 110.632 108.172 110.13Z" fill="#292A2E"/>
    <path opacity="0.2" d="M108.172 110.13L120.233 71.931C120.445 71.2597 120.858 70.6748 121.412 70.26C121.966 69.8452 122.634 69.6217 123.319 69.6217H172.455C172.967 69.6217 173.472 69.7466 173.929 69.9862C174.385 70.2258 174.78 70.5734 175.081 71.0004C175.382 71.4274 175.58 71.9218 175.66 72.443C175.74 72.9643 175.699 73.4977 175.541 73.9996L163.48 112.199C163.268 112.87 162.856 113.455 162.301 113.87C161.747 114.284 161.08 114.508 160.395 114.508H111.258C110.746 114.508 110.241 114.383 109.785 114.143C109.328 113.904 108.934 113.556 108.633 113.129C108.332 112.702 108.133 112.208 108.053 111.687C107.973 111.165 108.014 110.632 108.172 110.13Z" fill="white"/>
    <path d="M118.011 111.411H85.119C84.2994 111.411 83.635 112.095 83.635 112.94V112.979C83.635 113.823 84.2994 114.508 85.119 114.508H118.011C118.83 114.508 119.495 113.823 119.495 112.979V112.94C119.495 112.095 118.83 111.411 118.011 111.411Z" fill="#292A2E"/>
    <path opacity="0.2" d="M118.011 111.411H85.119C84.2994 111.411 83.635 112.095 83.635 112.94V112.979C83.635 113.823 84.2994 114.508 85.119 114.508H118.011C118.83 114.508 119.495 113.823 119.495 112.979V112.94C119.495 112.095 118.83 111.411 118.011 111.411Z" fill="white"/>
    <path d="M141.857 99.2379C144.703 99.2379 147.01 96.8607 147.01 93.9282C147.01 90.9957 144.703 88.6185 141.857 88.6185C139.011 88.6185 136.703 90.9957 136.703 93.9282C136.703 96.8607 139.011 99.2379 141.857 99.2379Z" fill="white"/>
    <path d="M101.994 63.2527H88.928V79.7628H101.994V63.2527Z" fill="white"/>
    <path d="M88.928 77.0204C87.8698 77.0204 86.8353 76.697 85.9554 76.0913C85.0755 75.4855 84.3897 74.6245 83.9847 73.6171C83.5797 72.6098 83.4738 71.5013 83.6802 70.4319C83.8867 69.3625 84.3963 68.3802 85.1446 67.6092C85.8929 66.8382 86.8462 66.3131 87.8842 66.1004C88.9221 65.8877 89.9979 65.9969 90.9756 66.4141C91.9533 66.8314 92.7889 67.538 93.3769 68.4446C93.9648 69.3512 94.2786 70.4171 94.2786 71.5074C94.277 72.969 93.7128 74.3703 92.7097 75.4039C91.7066 76.4374 90.3466 77.0187 88.928 77.0204ZM88.928 68.2528C88.3032 68.2528 87.6924 68.4437 87.1729 68.8013C86.6533 69.159 86.2484 69.6674 86.0093 70.2622C85.7702 70.857 85.7077 71.5115 85.8296 72.1429C85.9515 72.7743 86.2524 73.3543 86.6943 73.8095C87.1361 74.2647 87.699 74.5747 88.3119 74.7002C88.9247 74.8258 89.5599 74.7613 90.1372 74.5149C90.7144 74.2685 91.2078 73.8512 91.5549 73.3159C91.902 72.7806 92.0872 72.1512 92.0871 71.5074C92.0863 70.6444 91.7532 69.817 91.1609 69.2068C90.5686 68.5967 89.7656 68.2535 88.928 68.2528Z" fill="white"/>
    <path d="M89.6816 73.9534C89.5625 73.6346 89.3383 73.369 89.0482 73.2033C88.7582 73.0377 88.4208 72.9825 88.0953 73.0474C88.1014 73.0319 88.1047 73.0154 88.105 72.9987L88.5433 72.7967C88.8503 72.6622 89.1028 72.4225 89.258 72.1182C89.4133 71.8139 89.4617 71.4637 89.3951 71.1268C89.3491 70.9165 89.2583 70.7193 89.1294 70.5495C89.0004 70.3797 88.8365 70.2414 88.6495 70.1448C88.4625 70.0481 88.2569 69.9954 88.0477 69.9905C87.8385 69.9855 87.6308 70.0285 87.4397 70.1162L86.406 70.5926C86.406 70.5885 86.406 70.5843 86.4038 70.5801C86.3997 70.5715 86.3947 70.5635 86.3887 70.5562C86.6434 70.3584 86.8256 70.0775 86.9054 69.7594C86.9853 69.4412 86.9582 69.1046 86.8286 68.8043C86.5415 68.0041 85.5241 67.9402 84.8513 68.2495L82.1483 69.373L82.9641 68.5205C83.2197 68.2425 83.3634 67.8749 83.366 67.492C83.3687 67.1091 83.2302 66.7394 82.9785 66.4577C82.8436 66.317 82.6822 66.2061 82.5043 66.1318C82.3263 66.0575 82.1356 66.0213 81.9436 66.0255C81.7517 66.0296 81.5626 66.0741 81.3878 66.156C81.2131 66.238 81.0564 66.3558 80.9273 66.5022L71.3162 77.3171L74.6034 80.5789C75.6241 81.5921 76.9152 82.268 78.3112 82.5202C79.7072 82.7723 81.1445 82.5891 82.4388 81.994L88.2969 79.288C88.604 79.1535 88.8565 78.9138 89.0117 78.6095C89.167 78.3052 89.2154 77.955 89.1487 77.6181C89.0822 77.3157 88.9237 77.0431 88.6963 76.84C88.4689 76.637 88.1845 76.514 87.8846 76.4891C87.8879 76.4724 87.8879 76.4551 87.8847 76.4384C87.8815 76.4216 87.8751 76.4057 87.8659 76.3915C87.8567 76.3773 87.8448 76.3651 87.831 76.3557C87.8171 76.3462 87.8016 76.3397 87.7853 76.3365L88.867 75.8392C89.2094 75.6898 89.4841 75.4119 89.6353 75.0619C89.7865 74.7118 89.8031 74.3156 89.6816 73.9534Z" fill="#E98862"/>
    <path opacity="0.2" d="M84.4515 71.5078C84.4205 71.5079 84.3904 71.4969 84.3665 71.4766C84.3426 71.4563 84.3263 71.428 84.3205 71.3966C84.3147 71.3652 84.3197 71.3328 84.3348 71.3048C84.3498 71.2769 84.3738 71.2552 84.4027 71.2436L86.231 70.5017C86.2472 70.4951 86.2645 70.4919 86.2819 70.4922C86.2994 70.4925 86.3166 70.4963 86.3325 70.5035C86.3485 70.5107 86.363 70.521 86.3751 70.5339C86.3872 70.5468 86.3967 70.5621 86.4031 70.5788C86.4095 70.5955 86.4127 70.6133 86.4124 70.6313C86.4121 70.6493 86.4083 70.667 86.4014 70.6835C86.3944 70.6999 86.3844 70.7148 86.3719 70.7273C86.3593 70.7398 86.3445 70.7496 86.3283 70.7562L84.5 71.4981C84.4846 71.5044 84.4681 71.5077 84.4515 71.5078Z" fill="#0C0C0C"/>
    <path opacity="0.2" d="M85.4718 74.1715C85.441 74.1714 85.4112 74.1603 85.3875 74.1401C85.3638 74.1199 85.3476 74.0918 85.3418 74.0607C85.336 74.0296 85.3408 73.9973 85.3555 73.9695C85.3702 73.9416 85.3938 73.9199 85.4223 73.908L87.9231 72.8716C87.9553 72.8599 87.9907 72.8615 88.0218 72.8761C88.0529 72.8906 88.0774 72.9169 88.0902 72.9496C88.1029 72.9823 88.1029 73.0188 88.0902 73.0514C88.0775 73.0841 88.0531 73.1105 88.022 73.1251L85.5215 74.1618C85.5057 74.1682 85.4888 74.1714 85.4718 74.1715Z" fill="#0C0C0C"/>
    <path opacity="0.2" d="M86.5625 77.0636C86.5314 77.0636 86.5013 77.0524 86.4774 77.0318C86.4535 77.0113 86.4374 76.9828 86.4319 76.9513C86.4263 76.9197 86.4317 76.8872 86.447 76.8593C86.4624 76.8315 86.4867 76.81 86.5159 76.7988L87.708 76.3378C87.741 76.325 87.7775 76.3262 87.8096 76.3411C87.8417 76.3561 87.8668 76.3836 87.8792 76.4175C87.8917 76.4515 87.8906 76.4892 87.8761 76.5222C87.8616 76.5553 87.8349 76.5811 87.8019 76.594L86.6098 77.0549C86.5946 77.0607 86.5786 77.0636 86.5625 77.0636Z" fill="#0C0C0C"/>
    <path d="M92.4616 52.751C92.4039 52.751 92.3473 52.7347 92.2981 52.7037C92.2489 52.6727 92.2089 52.6284 92.1826 52.5755C91.4698 51.1436 90.5829 49.3611 90.683 47.4925C90.7626 46.0065 91.4388 44.6862 92.0918 43.4111C92.5139 42.6404 92.8736 41.8351 93.1672 41.0035C93.5255 39.856 93.6159 38.6375 93.431 37.4472C93.246 36.2569 92.7909 35.1284 92.1028 34.1535C92.077 34.1196 92.0581 34.0806 92.0472 34.039C92.0363 33.9974 92.0336 33.954 92.0392 33.9113C92.0449 33.8686 92.0588 33.8275 92.0801 33.7904C92.1014 33.7533 92.1297 33.721 92.1634 33.6954C92.197 33.6698 92.2353 33.6514 92.276 33.6413C92.3166 33.6312 92.3589 33.6295 92.4002 33.6365C92.4414 33.6435 92.4809 33.659 92.5163 33.6819C92.5517 33.7049 92.5823 33.735 92.6062 33.7703C93.3537 34.8283 93.8482 36.0531 94.0495 37.3451C94.2508 38.6372 94.1531 39.9599 93.7646 41.2057C93.4605 42.0717 93.087 42.9102 92.6482 43.7124C91.997 44.983 91.3821 46.1829 91.3101 47.5283C91.2193 49.2221 92.0283 50.8475 92.7418 52.2813C92.7662 52.3305 92.778 52.3853 92.776 52.4404C92.774 52.4956 92.7583 52.5494 92.7303 52.5965C92.7024 52.6436 92.6632 52.6826 92.6165 52.7096C92.5697 52.7367 92.5171 52.7509 92.4635 52.751H92.4616Z" fill="white"/>
    <path d="M97.4885 57.7855C97.4191 57.7855 97.3516 57.7618 97.2968 57.718C97.2419 57.6742 97.2027 57.6128 97.1854 57.5436C97.168 57.4744 97.1735 57.4012 97.2009 57.3355C97.2284 57.2698 97.2762 57.2154 97.3369 57.1807C98.4972 56.5214 98.6271 54.6863 98.082 53.2932C97.8117 52.6528 97.4953 52.0342 97.1356 51.4423C96.6548 50.6754 96.2639 49.8525 95.971 48.9908C95.672 47.9402 95.6533 46.8261 95.9167 45.7654C96.1801 44.7048 96.7161 43.7368 97.4681 42.9634C97.5279 42.9047 97.6077 42.8727 97.6902 42.8744C97.7727 42.876 97.8513 42.9112 97.9088 42.9722C97.9663 43.0332 97.998 43.1152 97.9972 43.2002C97.9963 43.2852 97.9629 43.3665 97.9042 43.4263C97.2337 44.116 96.7558 44.9792 96.5209 45.925C96.286 46.8708 96.3027 47.8643 96.5693 48.8012C96.8477 49.6141 97.2185 50.3902 97.6741 51.1133C98.0507 51.7327 98.3811 52.3806 98.6625 53.0516C99.3008 54.6828 99.1587 56.882 97.639 57.7452C97.5929 57.7715 97.5411 57.7854 97.4885 57.7855Z" fill="white"/>
    <path d="M82.3361 85.9028L36.2373 105.56C34.5752 106.261 32.751 106.448 30.9874 106.098C29.2239 105.748 27.5975 104.877 26.3068 103.59C25.0162 102.303 24.1172 100.657 23.7198 98.8525C23.3224 97.0479 23.4438 95.1632 24.0691 93.4286L37.8183 54.7357C39.5958 49.8043 44.6033 46.9687 49.3898 48.8005C51.6881 49.6801 53.5532 51.4643 54.5748 53.7607C55.5963 56.0571 55.6907 58.6776 54.8371 61.0457L48.5658 79.3593L75.5833 68.6273" fill="#1F41BB"/>
    <path d="M82.2237 86.0783C82.1992 86.0781 82.1752 86.0705 82.1549 86.0564C82.1345 86.0423 82.1186 86.0223 82.1091 85.9989L75.4017 68.8385L48.4747 79.5457C48.4524 79.5546 48.4281 79.5567 48.4047 79.5516C48.3813 79.5465 48.3599 79.5345 48.343 79.517C48.3261 79.4996 48.3146 79.4774 48.3097 79.4533C48.3048 79.4292 48.3069 79.4041 48.3156 79.3812L52.4794 68.3702C52.4913 68.3388 52.5148 68.3136 52.5447 68.3001C52.5746 68.2866 52.6085 68.2858 52.6389 68.2981C52.6693 68.3103 52.6938 68.3345 52.7069 68.3653C52.7201 68.3961 52.7208 68.4311 52.7089 68.4624L48.6466 79.2048L75.4264 68.556C75.4566 68.544 75.4902 68.5447 75.5199 68.558C75.5496 68.5712 75.573 68.596 75.5852 68.6269L82.338 85.9038C82.3497 85.9351 82.3492 85.9699 82.3364 86.0008C82.3237 86.0317 82.2998 86.0563 82.2697 86.0693C82.2551 86.0752 82.2395 86.0783 82.2237 86.0783Z" fill="#0C0C0C"/>
    <path d="M40.0179 82.953C39.989 82.9532 39.961 82.943 39.9387 82.9242C39.9164 82.9053 39.9013 82.879 39.8959 82.8498C39.8905 82.8206 39.8953 82.7904 39.9093 82.7644C39.9234 82.7385 39.9458 82.7184 39.9728 82.7078L48.4064 79.2886C48.4216 79.2822 48.4378 79.279 48.4541 79.2791C48.4705 79.2792 48.4866 79.2826 48.5017 79.2892C48.5167 79.2958 48.5303 79.3055 48.5417 79.3175C48.5532 79.3296 48.5621 79.3439 48.5681 79.3596C48.5741 79.3752 48.577 79.392 48.5767 79.4088C48.5763 79.4257 48.5728 79.4423 48.5661 79.4577C48.5595 79.4731 48.55 79.487 48.5381 79.4985C48.5262 79.5101 48.5122 79.5191 48.4969 79.5251L40.0629 82.9443C40.0486 82.95 40.0333 82.953 40.0179 82.953Z" fill="#0C0C0C"/>
    <path d="M41.982 103.265C41.9535 103.265 41.9257 103.255 41.9036 103.236C41.8815 103.217 41.8663 103.191 41.8608 103.162C41.8552 103.134 41.8596 103.104 41.8731 103.078C41.8867 103.052 41.9086 103.031 41.9351 103.02L82.178 85.8341C82.193 85.8278 82.209 85.8245 82.2251 85.8245C82.2413 85.8245 82.2573 85.8279 82.2722 85.8342C82.2872 85.8406 82.3007 85.85 82.3121 85.8618C82.3236 85.8736 82.3326 85.8876 82.3388 85.903C82.3449 85.9184 82.3481 85.9349 82.3481 85.9515C82.3481 85.9682 82.3449 85.9847 82.3386 86.0001C82.3324 86.0155 82.3234 86.0294 82.3119 86.0412C82.3005 86.0529 82.2869 86.0623 82.2719 86.0686L42.029 103.255C42.0141 103.261 41.9982 103.265 41.982 103.265Z" fill="#0C0C0C"/>
    <path d="M246.292 206.699C246.209 206.699 246.129 206.665 246.07 206.604C245.629 206.15 244.91 197.811 242.974 172.985C242.181 162.827 241.433 153.232 240.887 147.401C240.848 146.985 240.691 146.936 240.639 146.92C239.892 146.688 237.618 148.535 236.348 150.153C236.296 150.22 236.22 150.262 236.138 150.271C236.055 150.28 235.972 150.255 235.908 150.201C235.843 150.148 235.802 150.07 235.793 149.984C235.784 149.899 235.809 149.814 235.861 149.748C236.701 148.678 239.437 145.874 240.819 146.302C241.098 146.389 241.445 146.638 241.51 147.339C242.057 153.175 242.805 162.773 243.598 172.934C244.775 188.02 246.108 205.111 246.546 206.188C246.58 206.236 246.6 206.293 246.604 206.352C246.608 206.411 246.597 206.47 246.57 206.523C246.544 206.576 246.504 206.62 246.455 206.651C246.406 206.682 246.349 206.699 246.292 206.699Z" fill="#494949"/>
    <path d="M240.082 158.101C245.277 153.81 246.999 147.132 243.928 143.185C240.857 139.237 234.156 139.516 228.961 143.806C223.766 148.097 222.045 154.775 225.116 158.722C228.187 162.67 234.887 162.391 240.082 158.101Z" fill="#1F41BB"/>
    <path opacity="0.2" d="M240.082 158.101C245.277 153.81 246.999 147.132 243.928 143.185C240.857 139.237 234.156 139.516 228.961 143.806C223.766 148.097 222.045 154.775 225.116 158.722C228.187 162.67 234.887 162.391 240.082 158.101Z" fill="white"/>
    <path d="M226.572 159.726C226.542 159.726 226.513 159.718 226.488 159.701C226.463 159.685 226.443 159.661 226.43 159.634C226.417 159.606 226.413 159.575 226.417 159.545C226.42 159.514 226.433 159.486 226.452 159.462L241.257 141.066C241.27 141.05 241.286 141.036 241.304 141.026C241.322 141.015 241.342 141.009 241.363 141.007C241.384 141.005 241.405 141.007 241.425 141.013C241.444 141.019 241.463 141.03 241.479 141.043C241.495 141.057 241.508 141.074 241.518 141.093C241.527 141.112 241.533 141.133 241.535 141.154C241.537 141.175 241.534 141.197 241.528 141.217C241.521 141.237 241.511 141.256 241.497 141.273L226.692 159.668C226.678 159.686 226.659 159.701 226.638 159.711C226.618 159.721 226.595 159.726 226.572 159.726Z" fill="white"/>
    <path d="M249.521 202.755C249.471 202.755 249.422 202.743 249.377 202.719C249.333 202.695 249.295 202.661 249.266 202.619C249.237 202.577 249.218 202.529 249.211 202.478C249.204 202.427 249.209 202.375 249.225 202.326L254.786 185.847C254.95 185.363 255.229 184.929 255.598 184.585C255.967 184.241 256.413 183.997 256.897 183.877C257.381 183.756 257.886 183.763 258.367 183.896C258.847 184.029 259.288 184.285 259.648 184.638L262.588 187.533C262.648 187.592 262.683 187.673 262.685 187.758C262.687 187.844 262.655 187.927 262.598 187.989C262.541 188.05 262.462 188.086 262.379 188.088C262.296 188.09 262.215 188.058 262.155 187.999L259.215 185.105C258.931 184.826 258.583 184.625 258.204 184.52C257.825 184.415 257.426 184.409 257.044 184.504C256.662 184.599 256.31 184.791 256.019 185.063C255.727 185.335 255.507 185.677 255.378 186.059L249.817 202.538C249.795 202.601 249.755 202.656 249.702 202.695C249.649 202.734 249.586 202.755 249.521 202.755Z" fill="#494949"/>
    <path d="M270.803 196.656C274.653 193.516 274.424 186.611 270.292 181.232C266.16 175.853 259.689 174.038 255.839 177.178C251.989 180.318 252.218 187.223 256.35 192.602C260.482 197.981 266.953 199.796 270.803 196.656Z" fill="#1F41BB"/>
    <path d="M243.765 205.648C243.695 205.648 243.627 205.623 243.571 205.578C243.516 205.533 243.477 205.47 243.461 205.4L234.129 165.194C234.065 164.92 233.929 164.67 233.736 164.47C233.543 164.27 233.3 164.129 233.034 164.063C232.768 163.996 232.49 164.006 232.229 164.092C231.969 164.178 231.736 164.336 231.557 164.549L228.681 167.974C228.654 168.006 228.621 168.033 228.584 168.052C228.547 168.071 228.507 168.082 228.466 168.085C228.425 168.088 228.384 168.083 228.345 168.07C228.306 168.056 228.27 168.035 228.239 168.007C228.208 167.98 228.182 167.946 228.164 167.908C228.145 167.87 228.134 167.829 228.131 167.787C228.128 167.744 228.134 167.702 228.147 167.662C228.159 167.621 228.18 167.584 228.207 167.552L231.084 164.127C231.338 163.824 231.669 163.6 232.039 163.479C232.409 163.357 232.805 163.343 233.182 163.438C233.56 163.533 233.904 163.733 234.178 164.017C234.453 164.3 234.646 164.656 234.736 165.046L244.069 205.251C244.088 205.334 244.074 205.422 244.031 205.495C243.987 205.568 243.918 205.62 243.837 205.64C243.813 205.645 243.789 205.648 243.765 205.648Z" fill="#494949"/>
    <path d="M240.323 176.906C241.458 170.146 238.455 163.968 233.617 163.106C228.779 162.244 223.937 167.025 222.802 173.784C221.668 180.544 224.67 186.722 229.509 187.584C234.347 188.446 239.189 183.666 240.323 176.906Z" fill="#1F41BB"/>
    <path d="M246.292 206.699C246.279 206.699 246.266 206.698 246.254 206.696C246.171 206.686 246.096 206.642 246.045 206.575C245.994 206.507 245.971 206.422 245.981 206.337L251.941 156.482C252.005 155.938 252.221 155.426 252.562 155.006C252.903 154.586 253.354 154.277 253.862 154.115C254.369 153.953 254.911 153.945 255.423 154.093C255.934 154.242 256.393 154.539 256.745 154.949L263.556 162.898C263.611 162.962 263.639 163.046 263.634 163.132C263.629 163.217 263.591 163.297 263.529 163.354C263.467 163.41 263.385 163.439 263.302 163.434C263.219 163.429 263.142 163.389 263.087 163.325L256.275 155.376C256.003 155.059 255.648 154.829 255.253 154.715C254.858 154.6 254.438 154.606 254.046 154.731C253.654 154.857 253.305 155.096 253.042 155.421C252.778 155.746 252.612 156.142 252.562 156.562L246.601 206.415C246.592 206.493 246.556 206.565 246.499 206.617C246.442 206.669 246.368 206.698 246.292 206.699Z" fill="#494949"/>
    <path d="M270.541 167.315C272.918 162.888 270.122 156.608 264.296 153.288C258.47 149.967 251.82 150.864 249.443 155.291C247.067 159.718 249.863 165.998 255.689 169.319C261.515 172.639 268.165 171.742 270.541 167.315Z" fill="#1F41BB"/>
    <path opacity="0.2" d="M270.803 196.656C274.653 193.516 274.424 186.611 270.292 181.232C266.16 175.853 259.689 174.038 255.839 177.178C251.989 180.318 252.218 187.223 256.35 192.602C260.482 197.981 266.953 199.796 270.803 196.656Z" fill="white"/>
    <path opacity="0.5" d="M240.323 176.906C241.458 170.146 238.455 163.968 233.617 163.106C228.779 162.244 223.937 167.025 222.802 173.784C221.668 180.544 224.67 186.722 229.509 187.584C234.347 188.446 239.189 183.666 240.323 176.906Z" fill="white"/>
    <path opacity="0.5" d="M270.541 167.315C272.918 162.888 270.122 156.608 264.296 153.288C258.47 149.967 251.82 150.864 249.443 155.291C247.067 159.718 249.863 165.998 255.689 169.319C261.515 172.639 268.165 171.742 270.541 167.315Z" fill="white"/>
    <path d="M253.914 249H238.669L236.143 198.743H256.441L253.914 249Z" fill="#292A2E"/>
    <path opacity="0.3" d="M253.914 249H238.669L236.143 198.743H256.441L253.914 249Z" fill="white"/>
    <path d="M270.803 196.816C270.779 196.816 270.756 196.81 270.735 196.8C270.713 196.789 270.695 196.774 270.68 196.755L255.715 177.276C255.69 177.242 255.678 177.2 255.683 177.157C255.687 177.115 255.708 177.076 255.741 177.049C255.773 177.023 255.815 177.011 255.856 177.016C255.897 177.02 255.935 177.042 255.961 177.076L270.925 196.554C270.944 196.578 270.955 196.606 270.958 196.636C270.962 196.667 270.956 196.697 270.944 196.724C270.931 196.752 270.911 196.775 270.886 196.791C270.861 196.807 270.832 196.816 270.803 196.816Z" fill="white"/>
    <path d="M269.546 168.876C269.513 168.876 269.481 168.864 269.454 168.844L250.305 154.438C250.288 154.426 250.274 154.41 250.264 154.392C250.253 154.374 250.246 154.354 250.243 154.333C250.239 154.312 250.24 154.291 250.245 154.27C250.25 154.249 250.259 154.23 250.271 154.213C250.283 154.196 250.298 154.181 250.316 154.17C250.333 154.159 250.353 154.152 250.373 154.149C250.393 154.145 250.414 154.146 250.434 154.151C250.454 154.156 250.473 154.165 250.49 154.178L269.639 168.584C269.665 168.605 269.684 168.633 269.694 168.665C269.704 168.697 269.704 168.732 269.693 168.764C269.683 168.796 269.664 168.824 269.637 168.844C269.611 168.863 269.579 168.874 269.546 168.875V168.876Z" fill="white"/>
    <path d="M228.73 187.374C228.717 187.375 228.703 187.373 228.69 187.369C228.65 187.358 228.616 187.331 228.595 187.294C228.574 187.257 228.568 187.213 228.579 187.172L234.675 163.64C234.68 163.619 234.689 163.599 234.702 163.582C234.714 163.565 234.73 163.55 234.748 163.54C234.765 163.529 234.785 163.522 234.806 163.519C234.826 163.516 234.847 163.517 234.867 163.523C234.887 163.528 234.906 163.538 234.923 163.551C234.939 163.564 234.953 163.58 234.963 163.599C234.973 163.618 234.98 163.638 234.982 163.659C234.985 163.681 234.983 163.702 234.978 163.723L228.882 187.255C228.873 187.289 228.853 187.32 228.826 187.341C228.798 187.363 228.765 187.375 228.73 187.374Z" fill="white"/>
</svg>
